<svg xmlns="http://www.w3.org/2000/svg" width="106" height="72" viewBox="0 0 106 72" fill="none"><path fill-rule="evenodd" clip-rule="evenodd" d="M51.6419 35.3019C51.8361 36.6599 51.3832 39.6985 51.3187 37.4999C50.3484 32.2627 45.8879 30.9053 42.1377 29.6769C35.2844 27.8667 49.3143 19.5908 51.6419 35.3019Z" fill="#898D25"></path><path fill-rule="evenodd" clip-rule="evenodd" d="M52.7415 28.513C52.7415 29.4832 52.0951 31.6812 52.2893 30.0652C52.0951 26.1859 48.9914 24.7634 46.405 23.4699C41.6213 21.4661 52.6125 16.8747 52.7415 28.513Z" fill="#EFC031"></path><path fill-rule="evenodd" clip-rule="evenodd" d="M58.108 3.42695C57.7196 3.03921 57.0087 3.03921 56.6203 3.49148C56.1687 3.94374 56.2332 4.6553 56.6855 5.04305C57.0726 5.43079 57.7848 5.43079 58.1719 4.97852C58.6248 4.52625 58.5608 3.87922 58.108 3.42695ZM60.3705 0C60.3705 0 62.1814 5.68948 57.1383 10.4093C53.3882 14.6123 57.7848 17.909 56.9436 17.78C56.1687 16.3575 51.9656 16.8097 53.5178 16.4865C56.4925 15.8401 53.6475 15.3227 52.8062 8.92226C51.965 2.58635 60.3705 0 60.3705 0Z" fill="#9EA4A9"></path><path fill-rule="evenodd" clip-rule="evenodd" d="M53.194 35.4316C52.8063 38.5993 52.0302 45.8409 53.3237 40.7979C56.8797 32.4575 64.5742 28.2545 69.6812 28.1254C72.6559 27.8022 76.47 30.4531 81.1247 26.6384C84.4865 23.7939 83.5168 14.613 73.7546 14.095C67.6762 13.5782 54.9398 18.8794 53.194 35.4316Z" fill="#1E4C89"></path><path fill-rule="evenodd" clip-rule="evenodd" d="M3.21539 70.6689L1.98704 67.5006C1.92252 67.3059 1.858 67.2413 1.72835 67.2413C1.5993 67.2413 1.46966 67.3053 1.34061 67.3053C0.758695 67.3053 0.758694 67.2413 0.629646 67.2413C0.595999 67.2436 0.564309 67.258 0.540464 67.2818C0.51662 67.3056 0.502241 67.3373 0.5 67.371C0.5 67.4349 0.564524 67.5006 0.629646 67.5006H1.27608V71.3153H0.629646C0.595999 71.3176 0.564309 71.3319 0.540464 71.3558C0.51662 71.3796 0.502241 71.4113 0.5 71.445C0.5 71.5089 0.564524 71.5734 0.629646 71.5734C0.758694 71.5734 0.823816 71.5095 1.34061 71.5095H1.47025C2.05217 71.5095 2.11669 71.5734 2.24574 71.5734C2.24574 71.5734 2.31026 71.5095 2.31026 71.445C2.31026 71.3798 2.24574 71.3153 2.24574 71.3153H1.53478V68.1471L2.82825 71.5728C2.89277 71.6379 2.89277 71.6379 3.02242 71.6379C3.08694 71.6379 3.08694 71.6379 3.15147 71.5728L4.50886 68.211V71.3147H3.7979C3.76432 71.317 3.7327 71.3314 3.70896 71.3552C3.68521 71.3791 3.67096 71.4108 3.66886 71.4444C3.66886 71.5083 3.73338 71.5728 3.7979 71.5728C3.92755 71.5728 4.0566 71.5089 4.70303 71.5089H4.89721C5.54364 71.5089 5.67329 71.5728 5.80234 71.5728C5.86686 71.5728 5.93138 71.5089 5.93138 71.4444C5.93138 71.3792 5.86686 71.3147 5.80234 71.3147H5.1559V67.5H5.80234C5.86686 67.5 5.93138 67.4349 5.93138 67.3704C5.93138 67.3053 5.86686 67.2407 5.80234 67.2407C5.67329 67.2407 5.54364 67.3047 4.89721 67.3047H4.70303C4.63851 67.3047 4.57399 67.3698 4.50886 67.4343L3.21539 70.6689ZM31.3408 65.6898C31.2763 65.5601 31.0821 65.5601 30.953 65.6898C30.824 65.7549 30.6298 66.1426 29.9834 66.7245C29.9189 66.7885 30.0479 66.9181 30.1124 66.8542C30.7595 66.3362 31.1472 66.2066 31.3408 66.1426C31.4053 66.013 31.4698 65.8194 31.3408 65.6898ZM30.8879 71.3153V67.5006H31.5989C31.6634 67.5006 31.6634 67.4355 31.6634 67.371C31.6634 67.3059 31.6634 67.2413 31.5989 67.2413C31.4698 67.2413 31.3402 67.3053 30.6937 67.3053H30.435C29.7886 67.3053 29.6596 67.2413 29.5299 67.2413C29.4654 67.2413 29.4654 67.3053 29.4654 67.371C29.4654 67.4349 29.4654 67.5006 29.5299 67.5006H30.2409V71.3153H29.5299C29.4654 71.3153 29.4654 71.3792 29.4654 71.445C29.4654 71.5089 29.4654 71.5734 29.5299 71.5734C29.6596 71.5734 29.7886 71.5095 30.435 71.5095H30.6937C31.3402 71.5095 31.4692 71.5734 31.5989 71.5734C31.6634 71.5734 31.6634 71.5095 31.6634 71.445C31.6634 71.3798 31.6634 71.3153 31.5989 71.3153H30.8879ZM52.6123 67.2419C52.2245 67.2419 51.9658 67.3059 51.7071 67.3059C51.0607 67.3059 50.9316 67.2419 50.802 67.2419C50.7683 67.2442 50.7367 67.2585 50.7128 67.2824C50.689 67.3062 50.6746 67.3379 50.6723 67.3716C50.6723 67.4355 50.7369 67.5012 50.802 67.5012H51.4484V71.3798C50.9956 71.3798 50.931 71.3159 50.802 71.3159C50.7683 71.3182 50.7367 71.3325 50.7128 71.3564C50.689 71.3802 50.6746 71.4119 50.6723 71.4456C50.6723 71.5095 50.7369 71.574 50.802 71.574H52.871C52.9355 71.574 52.9355 71.5101 52.9355 71.4456C52.9355 71.3804 52.9355 71.3159 52.871 71.3159C52.7413 71.3159 52.6123 71.3798 52.16 71.3798V69.7638H52.6123C53.5819 69.7638 54.2283 69.247 54.2283 68.5348C54.2283 67.7587 53.5819 67.2419 52.6123 67.2419ZM52.1594 67.5006H52.6117C53.3232 67.5006 53.5174 67.7587 53.5174 68.5342C53.5174 69.3097 53.3232 69.5039 52.6117 69.5039H52.1594V67.5006ZM105.5 69.3748C105.5 68.0819 104.724 67.1774 103.69 67.1774C102.721 67.1774 101.879 68.0819 101.879 69.3748C101.879 70.7328 102.721 71.6385 103.69 71.6385C104.724 71.6385 105.5 70.7328 105.5 69.3748ZM104.724 69.3748C104.724 70.8625 104.401 71.445 103.69 71.445C102.979 71.445 102.656 70.8625 102.656 69.3748C102.656 67.9523 102.979 67.371 103.69 67.371C104.401 67.371 104.724 67.9523 104.724 69.3748ZM97.9351 71.3153H97.159V67.5006H97.9351C98.7112 67.5006 99.0344 67.9523 99.0344 69.3748C99.0344 70.8625 98.7112 71.3153 97.9351 71.3153ZM96.7074 71.5089H96.9009C97.4177 71.5089 97.6113 71.5728 97.9345 71.5728C98.9042 71.5728 99.8099 70.6683 99.8099 69.3742C99.8099 68.1465 98.9042 67.2413 97.9345 67.2413C97.6113 67.2413 97.4177 67.3053 96.9009 67.3053H96.7074C96.0598 67.3053 95.9313 67.2413 95.8017 67.2413C95.768 67.2434 95.7362 67.2578 95.7123 67.2817C95.6885 67.3055 95.6741 67.3373 95.672 67.371C95.672 67.4349 95.7359 67.5006 95.8017 67.5006H96.4481V71.3153H95.8017C95.768 71.3174 95.7362 71.3318 95.7123 71.3556C95.6885 71.3795 95.6741 71.4113 95.672 71.445C95.672 71.5089 95.7359 71.5734 95.8017 71.5734C95.9313 71.5734 96.0598 71.5089 96.7074 71.5089ZM92.6979 70.7973C92.3108 71.2502 91.9876 71.2502 91.7934 71.2502C91.5341 71.2502 91.2754 71.1206 91.2754 70.6038C91.2754 69.7638 92.0515 69.5045 92.6979 69.5045V70.7973ZM91.4696 67.6942C91.5347 67.5645 91.794 67.4349 92.1172 67.4349C92.5043 67.4349 92.6985 67.6942 92.6985 68.1465V69.3097C91.8585 69.3097 90.5656 69.6329 90.5656 70.7322C90.5656 71.3147 91.0185 71.6379 91.4702 71.6379C91.8585 71.6379 92.2462 71.5083 92.7642 71.0554C92.8282 71.3786 93.0223 71.6379 93.3456 71.6379C93.5403 71.6379 93.7984 71.6379 94.0571 71.3786C94.0571 71.3147 94.121 71.249 94.121 71.249C94.121 71.1194 94.0571 71.1194 93.9275 71.1194H93.8635C93.7984 71.1845 93.7339 71.3786 93.6042 71.3786C93.4746 71.3786 93.4107 71.3147 93.4107 71.0554V68.5336C93.4107 67.5639 92.9578 67.1768 92.1178 67.1768C91.5353 67.1768 90.8889 67.564 90.8889 68.0813C90.8889 68.2761 91.0824 68.4697 91.276 68.4697C91.5353 68.4697 91.6643 68.2761 91.6643 68.0813C91.6643 67.8884 91.5986 67.7587 91.4696 67.6942ZM87.2032 67.2419C86.7503 67.2419 86.4916 67.3059 86.2975 67.3059C85.651 67.3059 85.5214 67.2419 85.3917 67.2419C85.3278 67.2419 85.2621 67.3059 85.2621 67.3716C85.2621 67.4355 85.3272 67.5012 85.3917 67.5012H86.0382V71.3159H85.3917C85.3278 71.3159 85.2621 71.3798 85.2621 71.4456C85.2621 71.5095 85.3272 71.574 85.3917 71.574C85.5214 71.574 85.651 71.5101 86.2975 71.5101H86.5556C87.1381 71.5101 87.3317 71.574 87.4613 71.574C87.4613 71.574 87.5264 71.5101 87.5264 71.4456C87.5264 71.3804 87.4613 71.3159 87.4613 71.3159H86.7509V69.7638H87.2038C88.1735 69.7638 88.8199 69.247 88.8199 68.5348C88.8193 67.7587 88.1729 67.2419 87.2032 67.2419ZM86.7503 67.5006H87.2032C87.8496 67.5006 88.1077 67.7587 88.1077 68.5342C88.1077 69.2458 87.8496 69.5039 87.2032 69.5039H86.7503V67.5006ZM82.6769 71.3153V67.5006H83.3234C83.357 67.4984 83.3887 67.484 83.4126 67.4602C83.4364 67.4363 83.4508 67.4046 83.453 67.371C83.4509 67.3373 83.4366 67.3055 83.4127 67.2817C83.3888 67.2578 83.3571 67.2434 83.3234 67.2413C83.1937 67.2413 83.0641 67.3053 82.4177 67.3053H82.1596C81.577 67.3053 81.3835 67.2413 81.2538 67.2413C81.2538 67.2413 81.1899 67.3053 81.1899 67.371C81.1899 67.4349 81.2538 67.5006 81.2538 67.5006H81.9642V71.3153H81.2538C81.2538 71.3153 81.1899 71.3792 81.1899 71.445C81.1899 71.5089 81.2538 71.5734 81.2538 71.5734C81.3835 71.5734 81.577 71.5095 82.1596 71.5095H82.4177C83.0641 71.5095 83.1937 71.5734 83.3234 71.5734C83.3885 71.5734 83.453 71.5095 83.453 71.445C83.4509 71.4113 83.4366 71.3795 83.4127 71.3556C83.3888 71.3318 83.3571 71.3174 83.3234 71.3153H82.6769ZM79.3151 70.4096C79.3151 70.3445 79.25 70.3445 79.1855 70.3445C79.1209 70.3445 79.0558 70.4096 79.0558 70.4741C78.8623 71.0566 78.539 71.3798 77.9565 71.3798C77.3101 71.3798 76.9229 70.8631 76.9229 69.3754C76.9229 67.9529 77.2462 67.4361 77.9565 67.4361C78.3449 67.4361 78.6681 67.5657 78.7977 67.889C78.7379 67.8875 78.6783 67.8982 78.6227 67.9204C78.5671 67.9427 78.5166 67.976 78.4742 68.0183C78.4319 68.0607 78.3986 68.1112 78.3763 68.1668C78.3541 68.2224 78.3434 68.282 78.3449 68.3418C78.3449 68.5354 78.5384 68.729 78.7977 68.729C78.8574 68.7305 78.9168 68.7198 78.9723 68.6976C79.0278 68.6754 79.0782 68.6422 79.1204 68.6C79.1626 68.5577 79.1959 68.5073 79.218 68.4519C79.2402 68.3964 79.2509 68.337 79.2494 68.2773C79.2494 67.6297 78.6681 67.178 77.8926 67.178C76.7933 67.178 76.1469 68.0825 76.1469 69.3754C76.1469 70.7334 76.7933 71.6391 77.8926 71.6391C78.4094 71.6391 78.9262 71.4456 79.2494 70.6044C79.2494 70.5392 79.3151 70.4741 79.3151 70.4096ZM73.3663 71.3153V67.5006H74.0779C74.1418 67.5006 74.1418 67.4355 74.1418 67.371C74.1418 67.3059 74.1418 67.2413 74.0779 67.2413C73.9483 67.2413 73.7547 67.3053 73.1722 67.3053H72.9129C72.2664 67.3053 72.1368 67.2413 72.0084 67.2413C71.9747 67.2434 71.9429 67.2578 71.919 67.2817C71.8952 67.3055 71.8808 67.3373 71.8787 67.371C71.8787 67.4349 71.9426 67.5006 72.0084 67.5006H72.6548V71.3153H72.0084C71.9747 71.3174 71.9429 71.3318 71.919 71.3556C71.8952 71.3795 71.8808 71.4113 71.8787 71.445C71.8787 71.5089 71.9426 71.5734 72.0084 71.5734C72.1368 71.5734 72.2664 71.5095 72.9129 71.5095H73.1722C73.7547 71.5095 73.9483 71.5734 74.0779 71.5734C74.1418 71.5734 74.1418 71.5095 74.1418 71.445C74.1418 71.3798 74.1418 71.3153 74.0779 71.3153H73.3663ZM68.7116 67.5006H69.422C69.8103 67.5006 70.0045 67.8238 70.0045 68.3406C70.0045 68.4046 70.0684 68.4703 70.1342 68.4703C70.1981 68.4703 70.1981 68.4052 70.1981 68.3406V67.371C70.196 67.3373 70.1816 67.3055 70.1578 67.2817C70.1339 67.2578 70.1021 67.2434 70.0684 67.2413H66.5776C66.5136 67.2413 66.4491 67.3053 66.4491 67.371V68.3406C66.4491 68.4052 66.4491 68.4703 66.513 68.4703C66.577 68.4703 66.6427 68.4052 66.6427 68.3406C66.6427 67.8238 66.8363 67.5006 67.224 67.5006H68.0001V71.3153H67.2897C67.2246 71.3153 67.2246 71.3792 67.2246 71.445C67.2246 71.5089 67.2246 71.5734 67.2897 71.5734C67.4194 71.5734 67.5478 71.5095 68.1954 71.5095H68.4535C69.1 71.5095 69.2296 71.5734 69.3593 71.5734C69.4232 71.5734 69.4232 71.5095 69.4232 71.445C69.4232 71.3798 69.4232 71.3153 69.3593 71.3153H68.6477L68.7116 67.5006ZM63.1512 68.0174V67.371C63.1512 67.3059 63.1512 67.2413 63.0861 67.2413H61.7932C61.7293 67.2413 61.7293 67.3053 61.7293 67.371C61.7293 67.4349 61.7293 67.5006 61.7932 67.5006H62.5048V71.3153H61.7932C61.7293 71.3153 61.7293 71.3792 61.7293 71.445C61.7293 71.5089 61.7293 71.5734 61.7932 71.5734C61.9229 71.5734 62.0525 71.5095 62.6989 71.5095H62.957C63.6047 71.5095 63.7331 71.5734 63.8628 71.5734C63.9279 71.5734 63.9924 71.5095 63.9924 71.445C63.9903 71.4113 63.976 71.3795 63.9521 71.3556C63.9282 71.3318 63.8965 71.3174 63.8628 71.3153H63.1524V69.2464C63.1524 67.9523 63.7988 67.371 64.2517 67.4355C64.1705 67.5238 64.1244 67.6388 64.1221 67.7587C64.1206 67.8186 64.1313 67.8781 64.1535 67.9338C64.1758 67.9894 64.2091 68.0399 64.2514 68.0822C64.2938 68.1246 64.3443 68.1579 64.3999 68.1801C64.4555 68.2024 64.5151 68.2131 64.5749 68.2116C64.833 68.2116 64.9621 68.018 64.9621 67.7587C64.9621 67.4355 64.7028 67.1774 64.2517 67.1774C63.7976 67.1774 63.4093 67.5651 63.1512 68.0174ZM58.7546 70.7973C58.3017 71.2502 58.043 71.2502 57.8489 71.2502C57.5908 71.2502 57.3321 71.1206 57.3321 70.6038C57.3321 69.7638 58.0424 69.5045 58.7546 69.5045V70.7973ZM57.4617 67.6942C57.5914 67.5645 57.7849 67.4349 58.1082 67.4349C58.4953 67.4349 58.7546 67.6942 58.7546 68.1465V69.3097C57.8489 69.3097 56.556 69.6329 56.556 70.7322C56.556 71.3147 57.0089 71.6379 57.5257 71.6379C57.914 71.6379 58.3017 71.5083 58.7546 71.0554C58.8185 71.3786 59.0139 71.6379 59.401 71.6379C59.5307 71.6379 59.7882 71.6379 60.0475 71.3786C60.0475 71.3147 60.1114 71.249 60.1114 71.249C60.1114 71.1194 60.0475 71.1194 59.983 71.1194H59.9178C59.7882 71.1845 59.7882 71.3786 59.5946 71.3786C59.465 71.3786 59.401 71.3147 59.401 71.0554V68.5336C59.401 67.5639 58.9482 67.1768 58.1082 67.1768C57.5257 67.1768 56.8792 67.564 56.8792 68.0813C56.8792 68.2761 57.0728 68.4697 57.2676 68.4697C57.5257 68.4697 57.7192 68.2761 57.7192 68.0813C57.7192 67.8884 57.5908 67.7587 57.4617 67.6942ZM46.6635 69.3748C46.6635 68.0819 45.8229 67.1774 44.8532 67.1774C43.8184 67.1774 42.9778 68.0819 42.9778 69.3748C42.9778 70.7328 43.8184 71.6385 44.8532 71.6385C45.8235 71.6385 46.6635 70.7328 46.6635 69.3748ZM45.888 69.3748C45.888 70.8625 45.5003 71.445 44.8538 71.445C44.0777 71.445 43.7545 70.8625 43.7545 69.3748C43.7545 67.9523 44.0777 67.371 44.8538 67.371C45.5003 67.371 45.888 67.9523 45.888 69.3748ZM40.3276 71.3153V67.5006H40.9746C41.0391 67.5006 41.1036 67.4355 41.1036 67.371C41.1036 67.3059 41.0391 67.2413 40.9746 67.2413C40.845 67.2413 40.7159 67.3053 40.0689 67.3053H39.8102C39.2283 67.3053 39.0341 67.2413 38.905 67.2413C38.905 67.2413 38.8405 67.3053 38.8405 67.371C38.8405 67.4349 38.905 67.5006 38.905 67.5006H39.616V71.3153H38.905C38.905 71.3153 38.8405 71.3792 38.8405 71.445C38.8405 71.5089 38.905 71.5734 38.905 71.5734C39.0341 71.5734 39.2283 71.5095 39.8102 71.5095H40.0689C40.7159 71.5095 40.845 71.5734 40.9746 71.5734C41.0391 71.5734 41.1036 71.5095 41.1036 71.445C41.1036 71.3798 41.0391 71.3153 40.9746 71.3153H40.3276ZM35.4781 67.2419C35.0258 67.2419 34.7671 67.3059 34.5084 67.3059C33.9265 67.3059 33.7329 67.2419 33.6033 67.2419C33.6033 67.2419 33.5388 67.3059 33.5388 67.3716C33.5388 67.4355 33.6033 67.5012 33.6033 67.5012H34.3143V71.3159H33.6033C33.6033 71.3159 33.5388 71.3798 33.5388 71.4456C33.5388 71.5095 33.6033 71.574 33.6033 71.574C33.7329 71.574 33.9271 71.5101 34.5084 71.5101H34.7671C35.4136 71.5101 35.5426 71.574 35.6723 71.574C35.7368 71.574 35.8013 71.5101 35.8013 71.4456C35.7992 71.412 35.785 71.3803 35.7612 71.3564C35.7375 71.3326 35.7058 71.3182 35.6723 71.3159H35.0252V69.7638H35.4775C36.4478 69.7638 37.0942 69.247 37.0942 68.5348C37.0948 67.7587 36.4483 67.2419 35.4781 67.2419ZM35.0258 67.5006H35.4781C36.1251 67.5006 36.3832 67.7587 36.3832 68.5342C36.3832 69.2458 36.1245 69.5039 35.4781 69.5039H35.0258V67.5006ZM27.5261 70.4096C27.5261 70.3445 27.5261 70.3445 27.4616 70.3445C27.397 70.3445 27.3325 70.4096 27.3325 70.4741C27.1383 71.0566 26.8151 71.3798 26.2332 71.3798C25.5868 71.3798 25.1345 70.8631 25.1345 69.3754C25.1345 67.9529 25.4577 67.4361 26.2332 67.4361C26.621 67.4361 26.9442 67.5657 27.0738 67.889C26.7506 67.889 26.6215 68.0825 26.6215 68.3418C26.6215 68.5354 26.8157 68.729 27.0738 68.729C27.1336 68.7304 27.193 68.7198 27.2486 68.6976C27.3041 68.6754 27.3545 68.6422 27.3969 68.6C27.4392 68.5578 27.4725 68.5074 27.4949 68.452C27.5172 68.3965 27.528 68.3371 27.5267 68.2773C27.5267 67.6297 26.9448 67.178 26.1042 67.178C25.07 67.178 24.3584 68.0825 24.3584 69.3754C24.3584 70.7334 25.0694 71.6391 26.1042 71.6391C26.6861 71.6391 27.2035 71.4456 27.5267 70.6044L27.5261 70.4096ZM21.6424 71.3153V67.5006H22.2889C22.3534 67.5006 22.4185 67.4355 22.4185 67.371C22.4163 67.3373 22.4019 67.3056 22.378 67.2818C22.3542 67.258 22.3225 67.2436 22.2889 67.2413C22.1598 67.2413 22.0302 67.3053 21.3837 67.3053H21.1896C20.5431 67.3053 20.4135 67.2413 20.2844 67.2413C20.2508 67.2436 20.2192 67.258 20.1955 67.2818C20.1717 67.3057 20.1575 67.3374 20.1554 67.371C20.1554 67.4349 20.2199 67.5006 20.2844 67.5006H20.9309V71.3153H20.2844C20.2508 71.3176 20.2192 71.332 20.1955 71.3558C20.1717 71.3797 20.1575 71.4114 20.1554 71.445C20.1554 71.5089 20.2199 71.5734 20.2844 71.5734C20.4135 71.5734 20.5431 71.5095 21.1896 71.5095H21.3837C22.0302 71.5095 22.1592 71.5734 22.2889 71.5734C22.3534 71.5734 22.4185 71.5095 22.4185 71.445C22.4163 71.4113 22.4019 71.3796 22.378 71.3558C22.3542 71.3319 22.3225 71.3176 22.2889 71.3153H21.6424ZM18.5387 71.445C18.5387 71.3798 18.4742 71.3153 18.4742 71.3153H17.7632V68.7284C17.7632 67.8238 17.44 67.1774 16.5994 67.1774C15.9529 67.1774 15.4356 67.8238 15.1769 68.3406V67.371C15.1769 67.3059 15.1769 67.2413 15.1123 67.2413H13.8195C13.7549 67.2413 13.7549 67.3053 13.7549 67.371C13.7549 67.4349 13.7549 67.5006 13.8195 67.5006H14.5304V71.3153H13.8195C13.7549 71.3153 13.7549 71.3792 13.7549 71.445C13.7549 71.5089 13.7549 71.5734 13.8195 71.5734C13.9485 71.5734 14.0782 71.5095 14.7246 71.5095H14.9833C15.5652 71.5095 15.6303 71.5734 15.7594 71.5734C15.8239 71.5734 15.8884 71.5095 15.8884 71.445C15.8884 71.3798 15.8239 71.3153 15.7594 71.3153H15.1775V69.5045C15.1775 68.4052 15.8884 67.5006 16.5349 67.5006C16.9226 67.5006 17.0522 67.6942 17.0522 68.3406V71.3153H16.5349C16.5012 71.3173 16.4694 71.3316 16.4456 71.3555C16.4218 71.3795 16.4077 71.4113 16.4058 71.445C16.4058 71.5089 16.4703 71.5734 16.5349 71.5734C16.6639 71.5734 16.6639 71.5095 17.3109 71.5095H17.5696C18.1516 71.5095 18.3457 71.5734 18.4748 71.5734C18.4742 71.5734 18.5387 71.5089 18.5387 71.445ZM11.3622 71.056V67.371C11.3599 67.3373 11.3456 67.3056 11.3217 67.2818C11.2979 67.258 11.2662 67.2436 11.2325 67.2413H9.93965C9.93965 67.2413 9.87513 67.3053 9.87513 67.371C9.87513 67.4349 9.93965 67.5006 9.93965 67.5006H10.6506V69.3103C10.6506 70.4096 10.0042 71.3147 9.48679 71.3147C9.09904 71.3147 8.90488 71.0554 8.90488 70.4735V67.371C8.90488 67.3059 8.90488 67.2413 8.84035 67.2413H7.54748C7.48295 67.2413 7.48295 67.3053 7.48295 67.371C7.48295 67.4349 7.48295 67.5006 7.54748 67.5006H8.25844V70.0864C8.25844 70.9921 8.51713 71.6385 9.35774 71.6385C9.93965 71.6385 10.4564 70.9921 10.6506 70.4741V70.8625C10.6506 71.3792 10.9093 71.6385 11.2976 71.6385C11.5387 71.6395 11.7706 71.5465 11.9441 71.3792C12.0086 71.3153 12.0086 71.2496 12.0086 71.2496C12.0086 71.12 11.9441 71.12 11.879 71.12H11.8144C11.7499 71.1851 11.6854 71.3792 11.4912 71.3792C11.4267 71.3792 11.3622 71.3153 11.3622 71.056Z" fill="#898D25"></path><path fill-rule="evenodd" clip-rule="evenodd" d="M11.6208 56.3154C11.6208 53.2768 9.68086 51.9188 6.90095 51.1427L5.6726 50.7555C4.37972 50.4323 3.08625 49.9155 3.08625 48.1686C3.08625 46.2944 4.37972 45.0661 6.12486 45.0661C8.90538 45.0661 9.74599 47.135 9.74599 48.6215C9.74599 48.8162 9.81051 49.0743 10.1337 49.0743C10.4569 49.0743 10.5215 48.8162 10.5215 48.6215V44.5493C10.5215 44.4196 10.5215 44.1609 10.1337 44.1609C9.74599 44.1609 9.74599 44.4202 9.74599 44.5493C9.74599 45.0009 9.55182 45.1957 9.29312 45.2596C8.71121 44.6132 7.6125 44.0964 6.06034 44.0964C3.86174 44.0964 1.27539 45.9061 1.27539 48.8162C1.27539 51.4665 2.56886 52.9541 5.73712 53.8581L6.7713 54.1813C8.19382 54.5696 9.74539 55.2806 9.74539 57.0915C9.74539 59.0959 7.99965 60.2597 6.38356 60.2597C3.92686 60.2597 2.116 58.514 2.116 56.0567C2.116 55.8631 2.05147 55.6695 1.72826 55.6695C1.40504 55.6695 1.34051 55.8631 1.34051 56.0567V60.7765C1.34051 60.9062 1.34051 61.1648 1.72826 61.1648C2.05207 61.1648 2.116 60.9056 2.116 60.7765C2.116 60.2597 2.37469 60.0004 2.56886 59.8708C3.2153 60.5184 4.63782 61.2933 6.25391 61.2933C9.16348 61.2933 11.6208 59.354 11.6208 56.3154ZM98.0002 59.8708V45.3242H100.586C100.779 45.3242 100.974 45.1294 100.974 44.8713C100.974 44.612 100.779 44.4184 100.586 44.4184C100.133 44.4184 99.5523 44.5481 97.159 44.5481H96.2544C93.7971 44.5481 93.2797 44.4184 92.8275 44.4184C92.5682 44.4184 92.4403 44.612 92.4403 44.8713C92.4403 45.1294 92.5688 45.3242 92.8275 45.3242H95.3493V60.0655C93.6036 60.0655 93.2164 60.0004 92.8275 60.0004C92.6339 60.0004 92.5682 60.1301 92.5043 60.2597C92.3746 60.1301 92.3107 60.0004 92.1171 60.0004C91.7288 60.0004 91.4056 60.0655 90.1766 60.0655H90.1127L84.3587 44.3533C84.3587 44.1597 84.229 44.0952 83.9703 44.0952C83.6471 44.0952 83.5832 44.1591 83.5175 44.3533L77.7635 60.0655C76.0177 60.0655 75.6945 60.0004 75.2416 60.0004C75.0481 60.0004 74.8545 60.194 74.8545 60.5184C74.8545 60.7765 75.0481 60.9056 75.2416 60.9056C75.6945 60.9056 75.952 60.7759 78.2163 60.7759H78.346C80.6085 60.7759 80.9317 60.9056 81.3846 60.9056C81.5782 60.9056 81.7717 60.7759 81.7717 60.5184C81.7717 60.194 81.5782 60.0004 81.3846 60.0004C80.9317 60.0004 80.5434 60.0655 78.7331 60.0655L80.3492 55.7329H85.7155L87.2676 60.0655H87.138C86.1683 60.0655 85.5858 60.0004 85.1336 60.0004C85.0051 60.0004 84.8115 60.194 84.8115 60.5184C84.8115 60.7765 85.0051 60.9056 85.1336 60.9056C85.6515 60.9056 86.2329 60.7759 88.5605 60.7759H88.6902C91.1463 60.7759 91.6648 60.9056 92.1171 60.9056C92.3107 60.9056 92.3752 60.8416 92.5043 60.712C92.5682 60.8416 92.6339 60.9056 92.8275 60.9056C93.2803 60.9056 93.7971 60.7759 96.2544 60.7759L103.625 60.841C104.013 60.841 104.789 60.9695 104.983 60.9695C105.241 60.9695 105.37 60.7759 105.37 60.5178V59.7417C105.37 58.707 105.499 56.8967 105.499 56.638C105.499 56.4444 105.37 56.2509 105.112 56.2509C104.853 56.2509 104.724 56.4444 104.724 56.638C104.724 58.707 104.013 59.8702 102.591 59.8702L98.0002 59.8708ZM85.3277 54.7632H80.6718L83.064 48.3628L85.3277 54.7632ZM69.2923 59.8708H66.9001V52.7582H69.0342C71.4903 52.7582 72.7192 54.1807 72.7192 56.4444C72.7198 59.0308 71.8141 59.8708 69.2923 59.8708ZM67.9994 51.8542H66.9001V45.4526H68.1942C70.7799 45.4526 71.6199 46.2938 71.6199 48.4273C71.6205 51.1421 70.2631 51.8542 67.9994 51.8542ZM65.0904 60.7759H65.7369C66.9001 60.7759 68.3883 60.9056 69.8103 60.9056C73.4953 60.9056 75.3707 59.0959 75.3707 56.4444C75.3707 54.1807 73.1721 52.435 70.9741 52.0478C72.3966 51.595 74.3359 50.2382 74.3359 48.4267C74.3359 46.2281 72.5262 44.5481 68.8412 44.5481H65.091C62.6988 44.5481 62.1821 44.4184 61.6641 44.4184C61.4705 44.4184 61.2769 44.612 61.2769 44.8713C61.2769 45.1294 61.4705 45.3242 61.6641 45.3242H64.251V60.0655C62.4402 60.0655 62.0524 60.0004 61.6641 60.0004C61.4705 60.0004 61.2769 60.194 61.2769 60.5184C61.2769 60.7765 61.4705 60.9056 61.6641 60.9056C62.1815 60.9056 62.6983 60.7759 65.0904 60.7759ZM57.3959 56.3154V45.3248H59.9177C60.177 45.3248 60.3061 45.13 60.3061 44.8719C60.3061 44.6126 60.1764 44.419 59.9177 44.419C59.4649 44.419 59.2713 44.5487 57.0727 44.5487H56.7495C54.4869 44.5487 54.3573 44.419 53.8405 44.419C53.6469 44.419 53.4534 44.6126 53.4534 44.8719C53.4534 45.13 53.6469 45.3248 53.8405 45.3248H56.4263V56.3154C56.4263 58.4483 55.0037 60.194 52.6767 60.194C50.6723 60.194 48.862 59.0308 48.862 56.8322V45.3242H51.4483C51.6425 45.3242 51.8361 45.1294 51.8361 44.8713C51.8361 44.612 51.6419 44.4184 51.4483 44.4184C50.9955 44.4184 50.4142 44.5481 48.0214 44.5481H47.0517C44.6596 44.5481 44.1422 44.4184 43.6248 44.4184C43.4306 44.4184 43.3016 44.612 43.3016 44.8713C43.3016 45.1294 43.4306 45.3242 43.6248 45.3242H46.2111V56.3148C46.2111 59.483 48.991 61.2927 51.8361 61.2927C55.0037 61.2933 57.3959 59.483 57.3959 56.3154ZM36.7069 45.4526H39.6165C41.1036 45.4526 41.8145 46.6816 41.8145 48.686C41.8145 48.9441 41.9442 49.0731 42.2023 49.0731C42.461 49.0731 42.59 48.9435 42.59 48.686C42.59 48.4924 42.461 46.6816 42.461 45.6474V44.8713C42.461 44.612 42.3319 44.4184 42.0732 44.4184C41.879 44.4184 41.1036 44.5481 40.6507 44.5481H30.0472C29.6595 44.5481 28.8834 44.4184 28.6247 44.4184C28.4305 44.4184 28.2369 44.612 28.2369 44.8713L28.3015 45.6474C28.3015 46.681 28.1724 48.4924 28.1724 48.686C28.1724 48.9441 28.2369 49.0731 28.5602 49.0731C28.8189 49.0731 28.9479 48.9435 28.9479 48.686C28.9479 46.6816 29.6589 45.4526 31.1465 45.4526H34.0555V60.0655C32.4394 60.0655 31.922 60.0004 31.4691 60.0004C31.275 60.0004 31.0814 60.194 31.0814 60.5184C31.0814 60.7765 31.275 60.9056 31.4691 60.9056C31.9865 60.9056 32.5039 60.7759 34.8961 60.7759H35.8663C38.2585 60.7759 38.7759 60.9056 39.2933 60.9056C39.4875 60.9056 39.681 60.7759 39.681 60.5184C39.681 60.194 39.4875 60.0004 39.2933 60.0004C38.841 60.0004 38.5178 60.0655 36.7069 60.0655V45.4526ZM24.5519 44.5481H17.5689C15.1768 44.5481 14.6594 44.4184 14.1426 44.4184C14.0129 44.4184 13.7549 44.612 13.7549 44.8713C13.7549 45.1294 14.0135 45.3242 14.1426 45.3242H16.7289V60.0655C14.9832 60.0655 14.5955 60.0004 14.1426 60.0004C14.0129 60.0004 13.7549 60.194 13.7549 60.5184C13.7549 60.7765 14.0135 60.9056 14.1426 60.9056C14.6594 60.9056 15.1768 60.7759 17.5689 60.7759L25.1983 60.841C25.5861 60.841 26.3622 60.9695 26.6209 60.9695C26.815 60.9695 26.9441 60.7759 26.9441 60.5178V59.7417C26.9441 58.707 27.0731 56.8967 27.0731 56.638C27.0731 56.4444 26.9441 56.2509 26.7499 56.2509C26.4267 56.2509 26.2976 56.4444 26.2976 56.638C26.2976 58.707 25.5867 59.8702 24.099 59.8702H19.3792V52.7582H21.901C22.7416 52.7582 23.2584 53.4697 23.2584 54.7626C23.2584 54.8923 23.3881 55.151 23.5816 55.151C23.8403 55.151 23.9049 54.8917 23.9049 54.7626V52.3065V49.9143C23.9049 49.7196 23.8403 49.526 23.5816 49.526C23.3881 49.526 23.2584 49.7196 23.2584 49.9143C23.2584 51.2072 22.741 51.8537 21.901 51.8537H19.3792V45.452H23.5171C24.9396 45.452 25.6506 46.681 25.6506 48.6854C25.6506 48.9435 25.7803 49.0725 26.1035 49.0725C26.3622 49.0725 26.4912 48.9429 26.4912 48.6854C26.4912 48.4918 26.3616 46.681 26.3616 45.6468V44.8707C26.3616 44.6114 26.168 44.4178 25.9738 44.4178C25.7151 44.4184 24.9396 44.5481 24.5519 44.5481Z" fill="#1E4C89"></path></svg>